<svg xmlns="http://www.w3.org/2000/svg" viewBox="0 0 480 300" font-family="-apple-system,'PingFang SC','Microsoft YaHei',sans-serif"><defs>
 <clipPath id="cap"><rect x="-17" y="-7.5" width="34" height="15" rx="7.5"/></clipPath>
 <marker id="arr" markerWidth="9" markerHeight="9" refX="7" refY="4.5" orient="auto"><path d="M0,0 L9,4.5 L0,9 z" fill="#3a4a63"/></marker>
 <marker id="arrG" markerWidth="9" markerHeight="9" refX="7" refY="4.5" orient="auto"><path d="M0,0 L9,4.5 L0,9 z" fill="#3f7a52"/></marker>
</defs>
<rect width="480" height="300" fill="#ffffff"/>
<text x="240" y="26" font-size="16" fill="#2c3138" text-anchor="middle" font-weight="700">抑制叶酸代谢</text>
<text x="240" y="42" font-size="11" fill="#8a8f98" text-anchor="middle">阻断四氢叶酸合成（核苷酸原料）</text>
<text x="60" y="110" font-size="11" fill="#2c3138" text-anchor="start">PABA</text> <line x1="96" y1="106" x2="150" y2="106" stroke="#3a4a63" stroke-width="1.6" marker-end="url(#arr)"/> <circle cx="172" cy="106" r="16" fill="#9fb0cc" stroke="#8093b3" stroke-width="1.3"/><text x="172" y="140" font-size="9" fill="#2c3138" text-anchor="middle">DHPS</text>
 <g transform="translate(172,80) rotate(0) scale(0.8)"><rect x="-17" y="-7.5" width="34" height="15" rx="7.5" fill="#e7e0c5"/><rect x="-17" y="-7.5" width="17" height="15" fill="#df8c7e" clip-path="url(#cap)"/><rect x="-17" y="-7.5" width="34" height="15" rx="7.5" fill="none" stroke="#b0a47c" stroke-width="1"/></g> <line x1="172" y1="90" x2="172" y2="96" stroke="#3a4a63" stroke-width="1.6" marker-end="url(#arr)"/> <g stroke="#c6403a" stroke-width="3" stroke-linecap="round"><line x1="143" y1="99" x2="157" y2="113"/><line x1="143" y1="113" x2="157" y2="99"/></g> <text x="150" y="72" font-size="10" fill="#2c3138" text-anchor="middle">磺胺</text>
 <line x1="190" y1="106" x2="244" y2="106" stroke="#3a4a63" stroke-width="1.6" marker-end="url(#arr)"/> <text x="217" y="100" font-size="10" fill="#8a8f98" text-anchor="middle">DHF</text>
 <circle cx="266" cy="106" r="16" fill="#b79ac9" stroke="#9d7fb4" stroke-width="1.3"/><text x="266" y="140" font-size="9" fill="#2c3138" text-anchor="middle">DHFR</text>
 <g transform="translate(266,80) rotate(0) scale(0.8)"><rect x="-17" y="-7.5" width="34" height="15" rx="7.5" fill="#e7e0c5"/><rect x="-17" y="-7.5" width="17" height="15" fill="#df8c7e" clip-path="url(#cap)"/><rect x="-17" y="-7.5" width="34" height="15" rx="7.5" fill="none" stroke="#b0a47c" stroke-width="1"/></g> <line x1="266" y1="90" x2="266" y2="96" stroke="#3a4a63" stroke-width="1.6" marker-end="url(#arr)"/> <g stroke="#c6403a" stroke-width="3" stroke-linecap="round"><line x1="237" y1="99" x2="251" y2="113"/><line x1="237" y1="113" x2="251" y2="99"/></g> <text x="300" y="72" font-size="10" fill="#2c3138" text-anchor="middle">甲氧苄啶</text>
 <line x1="284" y1="106" x2="340" y2="106" stroke="#3a4a63" stroke-width="1.6" marker-end="url(#arr)"/> <text x="370" y="110" font-size="11" fill="#2c3138" text-anchor="start">THF</text> <line x1="370" y1="120" x2="370" y2="150" stroke="#3a4a63" stroke-width="1.6" marker-end="url(#arr)"/> <text x="370" y="168" font-size="10" fill="#8a8f98" text-anchor="middle">核酸合成</text>
 <text x="240" y="215" font-size="11" fill="#454b54" text-anchor="middle">叶酸耗竭 → 抑制细菌增殖</text>
<text x="240" y="286" font-size="12" fill="#454b54" text-anchor="middle">磺胺(DHPS)＋甲氧苄啶(DHFR)，序贯双阻断</text>
</svg>