<svg xmlns="http://www.w3.org/2000/svg" viewBox="0 0 480 300" width="480" height="300" role="img" font-family="-apple-system,'PingFang SC','Microsoft YaHei',sans-serif">
<title>抑制蛋白质合成</title><desc>药物结合核糖体 30S / 50S，阻断翻译。氨基糖苷/四环素(30S)；大环内酯/克林/利奈唑胺(50S)</desc><defs>
 <clipPath id="cap"><rect x="-17" y="-7.5" width="34" height="15" rx="7.5"/></clipPath>
 <marker id="arr" markerWidth="9" markerHeight="9" refX="7" refY="4.5" orient="auto"><path d="M0,0 L9,4.5 L0,9 z" fill="#3a4a63"/></marker>
 <marker id="arrG" markerWidth="9" markerHeight="9" refX="7" refY="4.5" orient="auto"><path d="M0,0 L9,4.5 L0,9 z" fill="#3f7a52"/></marker>
</defs>
<rect width="100%" height="100%" fill="#ffffff"/>
<text x="240" y="26" font-size="16" fill="#2c3138" text-anchor="middle" font-weight="700">抑制蛋白质合成</text>
<text x="240" y="44" font-size="12" fill="#77797e" text-anchor="middle">药物结合核糖体 30S / 50S，阻断翻译</text>
<path d="M168,152 a62 36 0 0 1 124 0 z" fill="#cdd9e6" stroke="#8093b3" stroke-width="1.3"/> <text x="230" y="140" font-size="13" fill="#4a5f80" text-anchor="middle" font-weight="700">50S</text>
 <path d="M173,152 a57 27 0 0 0 114 0 z" fill="#e0cfe0" stroke="#9d7fb4" stroke-width="1.3"/> <text x="230" y="174" font-size="13" fill="#6a4d80" text-anchor="middle" font-weight="700">30S</text>
 <line x1="150" y1="152" x2="322" y2="152" stroke="#c98" stroke-width="2"/> <text x="326" y="155" font-size="11" fill="#77797e" text-anchor="start">mRNA</text>
 <g transform="translate(202,120) rotate(20) scale(0.9)"><rect x="-17" y="-7.5" width="34" height="15" rx="7.5" fill="#e7e0c5"/><rect x="-17" y="-7.5" width="17" height="15" fill="#df8c7e" clip-path="url(#cap)"/><rect x="-17" y="-7.5" width="34" height="15" rx="7.5" fill="none" stroke="#b0a47c" stroke-width="1"/></g> <line x1="208" y1="132" x2="220" y2="144" stroke="#3a4a63" stroke-width="1.7" marker-end="url(#arr)"/> <g stroke="#c6403a" stroke-width="3" stroke-linecap="round"><line x1="250" y1="112" x2="266" y2="128"/><line x1="250" y1="128" x2="266" y2="112"/></g>
 <g transform="translate(258,184) rotate(-15) scale(0.9)"><rect x="-17" y="-7.5" width="34" height="15" rx="7.5" fill="#e7e0c5"/><rect x="-17" y="-7.5" width="17" height="15" fill="#df8c7e" clip-path="url(#cap)"/><rect x="-17" y="-7.5" width="34" height="15" rx="7.5" fill="none" stroke="#b0a47c" stroke-width="1"/></g> <line x1="255" y1="176" x2="247" y2="164" stroke="#3a4a63" stroke-width="1.7" marker-end="url(#arr)"/>
 <text x="240" y="214" font-size="12" fill="#3f444b" text-anchor="middle">肽链合成受阻（抑菌或杀菌）</text>
<text x="240" y="288" font-size="13" fill="#3f444b" text-anchor="middle">氨基糖苷/四环素(30S)；大环内酯/克林/利奈唑胺(50S)</text>
</svg>