<svg xmlns="http://www.w3.org/2000/svg" viewBox="0 0 480 300" width="480" height="300" role="img" font-family="-apple-system,'PingFang SC','Microsoft YaHei',sans-serif">
<title>多烯类（抗真菌）</title><desc>直接结合麦角固醇，在膜上打孔。两性霉素B、制霉菌素</desc><defs>
 <clipPath id="cap"><rect x="-17" y="-7.5" width="34" height="15" rx="7.5"/></clipPath>
 <marker id="arr" markerWidth="9" markerHeight="9" refX="7" refY="4.5" orient="auto"><path d="M0,0 L9,4.5 L0,9 z" fill="#3a4a63"/></marker>
 <marker id="arrG" markerWidth="9" markerHeight="9" refX="7" refY="4.5" orient="auto"><path d="M0,0 L9,4.5 L0,9 z" fill="#3f7a52"/></marker>
</defs>
<rect width="100%" height="100%" fill="#ffffff"/>
<text x="240" y="26" font-size="16" fill="#2c3138" text-anchor="middle" font-weight="700">多烯类（抗真菌）</text>
<text x="240" y="44" font-size="12" fill="#565b63" text-anchor="middle">直接结合麦角固醇，在膜上打孔</text>
<rect x="60" y="122" width="360" height="34" fill="#efe6c6" stroke="#c8b887"/> <text x="70" y="114" font-size="11" fill="#5a5740" text-anchor="start">真菌细胞膜（含麦角固醇）</text>
 <g><g transform="translate(200,139) rotate(90) scale(0.85)"><rect x="-17" y="-7.5" width="34" height="15" rx="7.5" fill="#e7e0c5"/><rect x="-17" y="-7.5" width="17" height="15" fill="#df8c7e" clip-path="url(#cap)"/><rect x="-17" y="-7.5" width="34" height="15" rx="7.5" fill="none" stroke="#b0a47c" stroke-width="1"/></g><g transform="translate(214,139) rotate(90) scale(0.85)"><rect x="-17" y="-7.5" width="34" height="15" rx="7.5" fill="#e7e0c5"/><rect x="-17" y="-7.5" width="17" height="15" fill="#df8c7e" clip-path="url(#cap)"/><rect x="-17" y="-7.5" width="34" height="15" rx="7.5" fill="none" stroke="#b0a47c" stroke-width="1"/></g><g transform="translate(228,139) rotate(90) scale(0.85)"><rect x="-17" y="-7.5" width="34" height="15" rx="7.5" fill="#e7e0c5"/><rect x="-17" y="-7.5" width="17" height="15" fill="#df8c7e" clip-path="url(#cap)"/><rect x="-17" y="-7.5" width="34" height="15" rx="7.5" fill="none" stroke="#b0a47c" stroke-width="1"/></g></g>
 <rect x="192" y="122" width="44" height="34" fill="#ffffff" opacity="0.8"/>
 <text x="214" y="178" font-size="11" fill="#2c3138" text-anchor="middle">药物-固醇孔道</text>
 <g stroke="#3a6f8c" stroke-width="1.6"><line x1="205" y1="158" x2="200" y2="190" marker-end="url(#arr)"/><line x1="223" y1="158" x2="228" y2="190" marker-end="url(#arr)"/></g>
 <text x="214" y="206" font-size="11" fill="#3a6f8c" text-anchor="middle">K⁺/离子外漏</text>
 <text x="240" y="232" font-size="12" fill="#3f444b" text-anchor="middle">膜通透性剧增 → 杀真菌（肾毒性明显）</text>
<text x="240" y="288" font-size="13" fill="#3f444b" text-anchor="middle">两性霉素B、制霉菌素</text>
</svg>