<svg xmlns="http://www.w3.org/2000/svg" viewBox="0 0 480 300" width="480" height="300" role="img" font-family="-apple-system,'PingFang SC','Microsoft YaHei',sans-serif">
<title>抑制核酸合成</title><desc>阻断 DNA 复制或 RNA 转录。氟喹诺酮(旋转酶/拓扑IV)；利福平(RNA聚合酶)；甲硝唑</desc><defs>
 <clipPath id="cap"><rect x="-17" y="-7.5" width="34" height="15" rx="7.5"/></clipPath>
 <marker id="arr" markerWidth="9" markerHeight="9" refX="7" refY="4.5" orient="auto"><path d="M0,0 L9,4.5 L0,9 z" fill="#3a4a63"/></marker>
 <marker id="arrG" markerWidth="9" markerHeight="9" refX="7" refY="4.5" orient="auto"><path d="M0,0 L9,4.5 L0,9 z" fill="#3f7a52"/></marker>
</defs>
<rect width="100%" height="100%" fill="#ffffff"/>
<text x="240" y="26" font-size="16" fill="#2c3138" text-anchor="middle" font-weight="700">抑制核酸合成</text>
<text x="240" y="44" font-size="12" fill="#77797e" text-anchor="middle">阻断 DNA 复制或 RNA 转录</text>
<path d="M120,92 C160,122 120,152 160,182 C200,212 160,242 200,256" fill="none" stroke="#cf7c74" stroke-width="3"/>
 <path d="M150,92 C110,122 150,152 110,182 C70,212 110,242 70,256" fill="none" stroke="#cf7c74" stroke-width="3"/>
 <text x="112" y="274" font-size="11" fill="#77797e" text-anchor="middle">DNA</text>
 <circle cx="206" cy="150" r="22" fill="#b79ac9" stroke="#9d7fb4" stroke-width="1.3"/> <text x="206" y="154" font-size="11" fill="#fff" text-anchor="middle" font-weight="600">旋转酶</text>
 <g transform="translate(244,150) rotate(0) scale(0.9)"><rect x="-17" y="-7.5" width="34" height="15" rx="7.5" fill="#e7e0c5"/><rect x="-17" y="-7.5" width="17" height="15" fill="#df8c7e" clip-path="url(#cap)"/><rect x="-17" y="-7.5" width="34" height="15" rx="7.5" fill="none" stroke="#b0a47c" stroke-width="1"/></g> <line x1="236" y1="150" x2="228" y2="150" stroke="#3a4a63" stroke-width="1.7" marker-end="url(#arr)"/> <g stroke="#c6403a" stroke-width="3" stroke-linecap="round"><line x1="212" y1="118" x2="228" y2="134"/><line x1="212" y1="134" x2="228" y2="118"/></g>
 <circle cx="336" cy="118" r="22" fill="#9fb0cc" stroke="#8093b3" stroke-width="1.3"/> <text x="336" y="122" font-size="11" fill="#fff" text-anchor="middle" font-weight="600">RNA聚</text>
 <g transform="translate(336,160) rotate(90) scale(0.85)"><rect x="-17" y="-7.5" width="34" height="15" rx="7.5" fill="#e7e0c5"/><rect x="-17" y="-7.5" width="17" height="15" fill="#df8c7e" clip-path="url(#cap)"/><rect x="-17" y="-7.5" width="34" height="15" rx="7.5" fill="none" stroke="#b0a47c" stroke-width="1"/></g> <line x1="336" y1="150" x2="336" y2="140" stroke="#3a4a63" stroke-width="1.7" marker-end="url(#arr)"/> <g stroke="#c6403a" stroke-width="3" stroke-linecap="round"><line x1="354" y1="108" x2="370" y2="124"/><line x1="354" y1="124" x2="370" y2="108"/></g>
 <text x="300" y="210" font-size="12" fill="#3f444b" text-anchor="middle">复制/转录中断</text>
<text x="240" y="288" font-size="13" fill="#3f444b" text-anchor="middle">氟喹诺酮(旋转酶/拓扑IV)；利福平(RNA聚合酶)；甲硝唑</text>
</svg>