<svg xmlns="http://www.w3.org/2000/svg" viewBox="0 0 480 300" font-family="-apple-system,'PingFang SC','Microsoft YaHei',sans-serif"><defs>
 <clipPath id="cap"><rect x="-17" y="-7.5" width="34" height="15" rx="7.5"/></clipPath>
 <marker id="arr" markerWidth="9" markerHeight="9" refX="7" refY="4.5" orient="auto"><path d="M0,0 L9,4.5 L0,9 z" fill="#3a4a63"/></marker>
 <marker id="arrG" markerWidth="9" markerHeight="9" refX="7" refY="4.5" orient="auto"><path d="M0,0 L9,4.5 L0,9 z" fill="#3f7a52"/></marker>
</defs>
<rect width="480" height="300" fill="#ffffff"/>
<text x="240" y="26" font-size="16" fill="#2c3138" text-anchor="middle" font-weight="700">破坏细胞膜</text>
<text x="240" y="42" font-size="11" fill="#8a8f98" text-anchor="middle">结合膜脂、形成孔道，胞内物质外漏</text>
<rect x="60" y="120" width="360" height="30" fill="#efe6c6" stroke="#c8b887"/>
 <g fill="#c8b887"><circle cx="90" cy="120" r="4"/><circle cx="120" cy="120" r="4"/><circle cx="150" cy="120" r="4"/><circle cx="330" cy="120" r="4"/><circle cx="360" cy="120" r="4"/><circle cx="390" cy="120" r="4"/></g>
 <text x="70" y="110" font-size="10" fill="#6e6b52" text-anchor="start">细胞膜</text>
 <g transform="translate(210,120) rotate(90) scale(0.9)"><rect x="-17" y="-7.5" width="34" height="15" rx="7.5" fill="#e7e0c5"/><rect x="-17" y="-7.5" width="17" height="15" fill="#df8c7e" clip-path="url(#cap)"/><rect x="-17" y="-7.5" width="34" height="15" rx="7.5" fill="none" stroke="#b0a47c" stroke-width="1"/></g> <g transform="translate(240,120) rotate(90) scale(0.9)"><rect x="-17" y="-7.5" width="34" height="15" rx="7.5" fill="#e7e0c5"/><rect x="-17" y="-7.5" width="17" height="15" fill="#df8c7e" clip-path="url(#cap)"/><rect x="-17" y="-7.5" width="34" height="15" rx="7.5" fill="none" stroke="#b0a47c" stroke-width="1"/></g>
 <rect x="204" y="120" width="42" height="30" fill="#ffffff" opacity="0.85"/>
 <g stroke="#4a8ab0" stroke-width="1.4"><line x1="216" y1="152" x2="210" y2="185" marker-end="url(#arr)"/><line x1="234" y1="152" x2="240" y2="185" marker-end="url(#arr)"/></g>
 <text x="225" y="200" font-size="10" fill="#3a6f8c" text-anchor="middle">K⁺/胞内物外漏</text>
 <text x="240" y="225" font-size="11" fill="#454b54" text-anchor="middle">膜完整性破坏 → 快速杀菌</text>
<text x="240" y="286" font-size="12" fill="#454b54" text-anchor="middle">多黏菌素(LPS/磷脂)；达托霉素(革兰阳性膜去极化)</text>
</svg>