<svg xmlns="http://www.w3.org/2000/svg" viewBox="0 0 480 300" font-family="-apple-system,'PingFang SC','Microsoft YaHei',sans-serif"><defs>
 <clipPath id="cap"><rect x="-17" y="-7.5" width="34" height="15" rx="7.5"/></clipPath>
 <marker id="arr" markerWidth="9" markerHeight="9" refX="7" refY="4.5" orient="auto"><path d="M0,0 L9,4.5 L0,9 z" fill="#3a4a63"/></marker>
 <marker id="arrG" markerWidth="9" markerHeight="9" refX="7" refY="4.5" orient="auto"><path d="M0,0 L9,4.5 L0,9 z" fill="#3f7a52"/></marker>
</defs>
<rect width="480" height="300" fill="#ffffff"/>
<text x="240" y="26" font-size="16" fill="#2c3138" text-anchor="middle" font-weight="700">主动外排</text>
<text x="240" y="42" font-size="11" fill="#8a8f98" text-anchor="middle">外排泵耗能将药物泵出，胞内浓度下降</text>
<rect x="60" y="60" width="360" height="190" rx="24" fill="#f6f2e2" stroke="#c8b887" stroke-width="2"/>
 <rect x="60" y="86" width="360" height="14" fill="#efe6c6" stroke="#c8b887"/> <text x="70" y="97" font-size="9" fill="#6e6b52" text-anchor="start">外膜</text>
 <rect x="60" y="210" width="360" height="14" fill="#efe6c6" stroke="#c8b887"/> <text x="70" y="221" font-size="9" fill="#6e6b52" text-anchor="start">内膜</text>
 <g fill="#a9c3d6" stroke="#5a80b0" stroke-width="1.2"><path d="M226,80 h44 l-7,26 h-30 z"/><path d="M233,106 h30 l-4,98 h-22 z"/><path d="M222,204 h52 l-8,26 h-36 z"/></g>
 <path d="M248,84 v140" stroke="#fbfaf8" stroke-width="6"/>
 <text x="280" y="120" font-size="11" fill="#2c3138" text-anchor="start" font-weight="600">外排泵</text>
 <g><g transform="translate(248,196) rotate(90) scale(0.7)"><rect x="-17" y="-7.5" width="34" height="15" rx="7.5" fill="#e7e0c5"/><rect x="-17" y="-7.5" width="17" height="15" fill="#df8c7e" clip-path="url(#cap)"/><rect x="-17" y="-7.5" width="34" height="15" rx="7.5" fill="none" stroke="#b0a47c" stroke-width="1"/></g><g transform="translate(248,150) rotate(90) scale(0.7)"><rect x="-17" y="-7.5" width="34" height="15" rx="7.5" fill="#e7e0c5"/><rect x="-17" y="-7.5" width="17" height="15" fill="#df8c7e" clip-path="url(#cap)"/><rect x="-17" y="-7.5" width="34" height="15" rx="7.5" fill="none" stroke="#b0a47c" stroke-width="1"/></g><g transform="translate(248,96) rotate(90) scale(0.7)"><rect x="-17" y="-7.5" width="34" height="15" rx="7.5" fill="#e7e0c5"/><rect x="-17" y="-7.5" width="17" height="15" fill="#df8c7e" clip-path="url(#cap)"/><rect x="-17" y="-7.5" width="34" height="15" rx="7.5" fill="none" stroke="#b0a47c" stroke-width="1"/></g><g transform="translate(248,58) rotate(90) scale(0.75)"><rect x="-17" y="-7.5" width="34" height="15" rx="7.5" fill="#e7e0c5"/><rect x="-17" y="-7.5" width="17" height="15" fill="#df8c7e" clip-path="url(#cap)"/><rect x="-17" y="-7.5" width="34" height="15" rx="7.5" fill="none" stroke="#b0a47c" stroke-width="1"/></g></g>
 <line x1="248" y1="214" x2="248" y2="64" stroke="#3a4a63" stroke-width="1.6" stroke-dasharray="6 4" marker-end="url(#arr)"/>
 <g transform="translate(150,180) rotate(20) scale(1)"><rect x="-17" y="-7.5" width="34" height="15" rx="7.5" fill="#e7e0c5"/><rect x="-17" y="-7.5" width="17" height="15" fill="#df8c7e" clip-path="url(#cap)"/><rect x="-17" y="-7.5" width="34" height="15" rx="7.5" fill="none" stroke="#b0a47c" stroke-width="1"/></g> <g transform="translate(120,150) rotate(-15) scale(1)"><rect x="-17" y="-7.5" width="34" height="15" rx="7.5" fill="#e7e0c5"/><rect x="-17" y="-7.5" width="17" height="15" fill="#df8c7e" clip-path="url(#cap)"/><rect x="-17" y="-7.5" width="34" height="15" rx="7.5" fill="none" stroke="#b0a47c" stroke-width="1"/></g>
 <text x="240" y="268" font-size="11" fill="#454b54" text-anchor="middle">胞内药物 ↓</text>
<text x="240" y="286" font-size="12" fill="#454b54" text-anchor="middle">多重耐药常见机制（如 RND 家族 AcrAB–TolC）</text>
</svg>