<svg xmlns="http://www.w3.org/2000/svg" viewBox="0 0 480 300" font-family="-apple-system,'PingFang SC','Microsoft YaHei',sans-serif"><defs>
 <clipPath id="cap"><rect x="-17" y="-7.5" width="34" height="15" rx="7.5"/></clipPath>
 <marker id="arr" markerWidth="9" markerHeight="9" refX="7" refY="4.5" orient="auto"><path d="M0,0 L9,4.5 L0,9 z" fill="#3a4a63"/></marker>
 <marker id="arrG" markerWidth="9" markerHeight="9" refX="7" refY="4.5" orient="auto"><path d="M0,0 L9,4.5 L0,9 z" fill="#3f7a52"/></marker>
</defs>
<rect width="480" height="300" fill="#ffffff"/>
<text x="240" y="26" font-size="16" fill="#2c3138" text-anchor="middle" font-weight="700">旁路代谢 / 靶点旁路</text>
<text x="240" y="42" font-size="11" fill="#8a8f98" text-anchor="middle">新酶绕过被抑制的步骤，功能不受影响</text>
<text x="120" y="120" font-size="11" fill="#2c3138" text-anchor="start" font-weight="600">原代谢通路</text>
 <circle cx="110" cy="160" r="14" fill="#e4938c" stroke="#cf7c74"/> <text x="110" y="164" font-size="12" text-anchor="middle" fill="#7a3b36">A</text>
 <line x1="128" y1="160" x2="196" y2="160" stroke="#3a4a63" stroke-width="1.6" marker-end="url(#arr)"/> <g transform="translate(162,142) rotate(0) scale(0.75)"><rect x="-17" y="-7.5" width="34" height="15" rx="7.5" fill="#e7e0c5"/><rect x="-17" y="-7.5" width="17" height="15" fill="#df8c7e" clip-path="url(#cap)"/><rect x="-17" y="-7.5" width="34" height="15" rx="7.5" fill="none" stroke="#b0a47c" stroke-width="1"/></g> <g stroke="#c6403a" stroke-width="3" stroke-linecap="round"><line x1="154" y1="152" x2="170" y2="168"/><line x1="154" y1="168" x2="170" y2="152"/></g>
 <circle cx="214" cy="160" r="14" fill="#e4938c" stroke="#cf7c74"/> <text x="214" y="164" font-size="12" text-anchor="middle" fill="#7a3b36">B</text>
 <circle cx="300" cy="150" r="30" fill="#a7b4c9" stroke="#8093b3" stroke-width="1.3"/> <path d="M300,144 a10 10 0 1 0 0.01 0" fill="#f6f2e2"/>
 <text x="300" y="205" font-size="11" fill="#2c3138" text-anchor="middle" font-weight="600">新酶（旁路）</text>
 <path d="M124,178 C170,215 250,215 285,178" fill="none" stroke="#3f7a52" stroke-width="1.6" marker-end="url(#arrG)"/>
 <text x="205" y="230" font-size="10" fill="#3f7a52" text-anchor="middle">旁路绕行</text>
 <text x="240" y="268" font-size="11" fill="#454b54" text-anchor="middle">药物虽抑制原酶，代谢仍继续</text>
<text x="240" y="286" font-size="12" fill="#454b54" text-anchor="middle">如金葡菌获得 dfrA、肠球菌 vanA 改变肽聚糖前体</text>
</svg>