<svg xmlns="http://www.w3.org/2000/svg" viewBox="0 0 480 300" font-family="-apple-system,'PingFang SC','Microsoft YaHei',sans-serif"><defs>
 <clipPath id="cap"><rect x="-17" y="-7.5" width="34" height="15" rx="7.5"/></clipPath>
 <marker id="arr" markerWidth="9" markerHeight="9" refX="7" refY="4.5" orient="auto"><path d="M0,0 L9,4.5 L0,9 z" fill="#3a4a63"/></marker>
 <marker id="arrG" markerWidth="9" markerHeight="9" refX="7" refY="4.5" orient="auto"><path d="M0,0 L9,4.5 L0,9 z" fill="#3f7a52"/></marker>
</defs>
<rect width="480" height="300" fill="#ffffff"/>
<text x="240" y="26" font-size="16" fill="#2c3138" text-anchor="middle" font-weight="700">生物膜</text>
<text x="240" y="42" font-size="11" fill="#8a8f98" text-anchor="middle">胞外多糖基质屏障 + 休眠菌，降低药物渗透与杀灭</text>
<rect x="60" y="70" width="360" height="60" rx="10" fill="#e8eef0" stroke="#b9c7cb"/> <text x="72" y="90" font-size="10" fill="#5f7378" text-anchor="start">胞外基质（EPS）</text>
 <g fill="#e4938c" stroke="#cf7c74" stroke-width="1.1"><circle cx="150" cy="180" r="16"/><circle cx="210" cy="196" r="16"/><circle cx="270" cy="180" r="16"/><circle cx="330" cy="196" r="16"/><circle cx="185" cy="215" r="13"/><circle cx="300" cy="215" r="13"/></g>
 <text x="240" y="250" font-size="10" fill="#8a8f98" text-anchor="middle">深层菌代谢低下（持留菌）</text>
 <g transform="translate(150,55) rotate(10) scale(0.85)"><rect x="-17" y="-7.5" width="34" height="15" rx="7.5" fill="#e7e0c5"/><rect x="-17" y="-7.5" width="17" height="15" fill="#df8c7e" clip-path="url(#cap)"/><rect x="-17" y="-7.5" width="34" height="15" rx="7.5" fill="none" stroke="#b0a47c" stroke-width="1"/></g> <g transform="translate(300,55) rotate(-10) scale(0.85)"><rect x="-17" y="-7.5" width="34" height="15" rx="7.5" fill="#e7e0c5"/><rect x="-17" y="-7.5" width="17" height="15" fill="#df8c7e" clip-path="url(#cap)"/><rect x="-17" y="-7.5" width="34" height="15" rx="7.5" fill="none" stroke="#b0a47c" stroke-width="1"/></g> <line x1="150" y1="66" x2="150" y2="72" stroke="#3a4a63" stroke-width="1.6" stroke-dasharray="3 4" marker-end="url(#arr)"/> <line x1="300" y1="66" x2="300" y2="72" stroke="#3a4a63" stroke-width="1.6" stroke-dasharray="3 4" marker-end="url(#arr)"/>
 <g stroke="#c6403a" stroke-width="3" stroke-linecap="round"><line x1="201" y1="91" x2="219" y2="109"/><line x1="201" y1="109" x2="219" y2="91"/></g> <g stroke="#c6403a" stroke-width="3" stroke-linecap="round"><line x1="261" y1="91" x2="279" y2="109"/><line x1="261" y1="109" x2="279" y2="91"/></g>
 <text x="240" y="268" font-size="11" fill="#454b54" text-anchor="middle">药物渗透受阻、疗效下降</text>
<text x="240" y="286" font-size="12" fill="#454b54" text-anchor="middle">导管/植入物相关感染常见</text>
</svg>