<svg xmlns="http://www.w3.org/2000/svg" viewBox="0 0 480 300" font-family="-apple-system,'PingFang SC','Microsoft YaHei',sans-serif">
  <defs>
    <linearGradient id="efMem" x1="0" y1="0" x2="0" y2="1">
      <stop offset="0" stop-color="#5eead4"/><stop offset="0.5" stop-color="#99f6e4"/><stop offset="1" stop-color="#5eead4"/>
    </linearGradient>
    <linearGradient id="efPump" x1="0" y1="0" x2="0" y2="1">
      <stop offset="0" stop-color="#fde68a"/><stop offset="1" stop-color="#f59e0b"/>
    </linearGradient>
    <radialGradient id="efDrug" cx="0.4" cy="0.35" r="0.7">
      <stop offset="0" stop-color="#dbeafe"/><stop offset="1" stop-color="#3b82f6"/>
    </radialGradient>
    <filter id="efSh" x="-30%" y="-30%" width="160%" height="160%"><feDropShadow dx="0" dy="1.5" stdDeviation="1.6" flood-color="#0f172a" flood-opacity="0.2"/></filter>
  </defs>
  <rect width="480" height="300" fill="#f8fafc"/>
  <text x="240" y="32" text-anchor="middle" font-size="18" font-weight="700" fill="#b91c1c">主动外排泵（RND · AcrAB–TolC）</text>

  <rect x="0" y="44" width="480" height="30" fill="#eff6ff"/>
  <rect x="0" y="170" width="480" height="86" fill="#f0fdfa"/>
  <text x="466" y="62" text-anchor="end" font-size="11" fill="#64748b">胞外</text>
  <text x="466" y="128" text-anchor="end" font-size="11" fill="#64748b">周质</text>
  <text x="466" y="246" text-anchor="end" font-size="11" fill="#64748b">胞质</text>

  <rect x="0" y="74" width="480" height="26" fill="url(#efMem)" stroke="#0f766e"/>
  <line x1="0" y1="87" x2="480" y2="87" stroke="#0f766e" stroke-dasharray="3 3" opacity="0.5"/>
  <text x="14" y="91" font-size="10.5" fill="#0f766e" font-weight="600">外膜</text>
  <rect x="0" y="144" width="480" height="26" fill="url(#efMem)" stroke="#0f766e"/>
  <line x1="0" y1="157" x2="480" y2="157" stroke="#0f766e" stroke-dasharray="3 3" opacity="0.5"/>
  <text x="14" y="161" font-size="10.5" fill="#0f766e" font-weight="600">内膜</text>

  <g filter="url(#efSh)">
    <path d="M214,74 h52 l-8,26 h-36 z" fill="url(#efPump)" stroke="#b45309"/>
    <path d="M222,100 h36 l-4,44 h-28 z" fill="url(#efPump)" stroke="#b45309"/>
    <path d="M210,144 h60 l-10,26 h-40 z" fill="url(#efPump)" stroke="#b45309"/>
  </g>
  <path d="M236,76 v92" stroke="#fff" stroke-width="6" opacity="0.7"/>
  <text x="284" y="66" font-size="10" fill="#7c2d12">外膜通道 TolC</text>
  <text x="284" y="126" font-size="10" fill="#7c2d12">周质连接 AcrA</text>
  <text x="284" y="162" font-size="10" fill="#7c2d12">内膜转运体 AcrB</text>

  <circle cx="236" cy="206" r="7" fill="url(#efDrug)" stroke="#1d4ed8"/>
  <circle cx="236" cy="150" r="7" fill="url(#efDrug)" stroke="#1d4ed8"/>
  <circle cx="236" cy="96" r="7" fill="url(#efDrug)" stroke="#1d4ed8"/>
  <circle cx="236" cy="56" r="7" fill="url(#efDrug)" stroke="#1d4ed8"/>
  <line x1="236" y1="198" x2="236" y2="66" stroke="#2563eb" stroke-width="2" stroke-dasharray="5 4"/>
  <polygon points="236,50 230,62 242,62" fill="#2563eb"/>

  <path d="M150,206 C150,176 150,176 174,157" fill="none" stroke="#dc2626" stroke-width="2"/>
  <polygon points="174,157 164,158 169,167" fill="#dc2626"/>
  <text x="120" y="212" font-size="10.5" fill="#b91c1c" font-weight="600">H⁺ 质子动力</text>

  <text x="240" y="284" text-anchor="middle" font-size="12.5" font-weight="600" fill="#334155">耗能将药物主动泵出胞外 → 胞内浓度下降（常致多重耐药）</text>
</svg>
